<svg width="263" height="228" viewBox="0 0 263 228" fill="none" xmlns="http://www.w3.org/2000/svg">
<g clip-path="url(#clip0_3_47)">
<path d="M65.2585 73.2285C65.2585 73.2285 37.13 82.978 31.7355 91.9776C26.341 100.977 65.2585 73.2285 65.2585 73.2285Z" fill="#A97ECE"/>
<path d="M16.6577 104.436C16.462 104.45 16.2655 104.422 16.0814 104.354C15.8973 104.286 15.7299 104.178 15.5906 104.039C14.7155 103.246 15.4307 101.746 16.0445 100.687C24.2739 86.4906 65.6516 71.5304 67.4086 70.9006L71.1926 69.5445L67.9525 71.9332C67.8327 72.0218 55.7953 80.8887 43.4724 89.2424C24.3145 102.23 18.6268 104.436 16.6577 104.436ZM63.7312 73.5541C52.8663 77.7863 23.5862 90.0204 17.0588 101.282C16.1895 102.782 16.3734 103.158 16.3757 103.161C16.5517 103.352 18.7752 104.551 42.6736 88.36C51.0044 82.716 59.2234 76.822 63.7312 73.5541V73.5541Z" fill="#3F3D56"/>
<path d="M64.6488 63.4904C64.6488 63.4904 38.7274 60.809 30.8638 65.3913C23.0002 69.9736 64.6488 63.4904 64.6488 63.4904Z" fill="#A97ECE"/>
<path d="M29.3261 67.8732C20.2526 67.8732 19.6296 66.4095 19.3443 65.7402C18.7741 64.4011 20.3609 63.1401 20.8824 62.7257C32.1336 53.7861 66.3077 62.8203 67.7571 63.209L70.5365 63.955L67.6889 64.3641C67.5742 64.3806 56.1242 66.0196 44.5693 67.0456C37.8305 67.6439 32.9164 67.8732 29.3261 67.8732ZM37.2775 59.9956C30.8865 59.9956 25.04 60.9272 21.6102 63.6525C20.5752 64.4746 20.3185 65.0294 20.4233 65.2745C20.6864 65.8916 23.197 67.7578 44.4661 65.8691C52.3918 65.1652 60.2675 64.1724 64.4504 63.6156C59.091 62.3742 47.4891 59.9956 37.2775 59.9956Z" fill="#3F3D56"/>
<path d="M72.067 58.8961C72.067 58.8961 59.0286 27.3906 62.1877 24.2721C65.3467 21.1536 72.067 58.8961 72.067 58.8961Z" fill="#A97ECE"/>
<path d="M72.7881 61.6675L71.1669 57.4987C71.1273 57.3966 67.1605 47.1707 63.8917 36.6428C57.1586 14.9607 59.9185 13.1092 60.8252 12.5008C61.0489 12.3394 61.3118 12.2419 61.5861 12.2186C61.8604 12.1953 62.1359 12.2471 62.3833 12.3684C67.4688 14.7531 71.8179 52.8789 72.297 57.2184L72.7881 61.6675ZM61.718 13.395C61.6304 13.3993 61.5461 13.4301 61.4762 13.4835C58.236 15.6574 64.8046 37.06 70.5789 52.6379C68.5983 36.5753 64.9513 14.8757 61.8876 13.4388C61.835 13.4117 61.7771 13.3967 61.718 13.395V13.395Z" fill="#3F3D56"/>
<path d="M76.995 65.8242C76.995 65.8242 83.9932 33.9791 91.3245 33.9791C98.6559 33.9791 76.995 65.8242 76.995 65.8242Z" fill="#A97ECE"/>
<path d="M75.1486 68.0217L75.8409 65.3997C76.3492 63.4769 88.4325 18.3071 101.642 18.3071C103.453 18.3071 104.234 19.1621 104.571 19.8792C108.093 27.386 80.0684 62.004 76.8615 65.9265L75.1486 68.0217ZM101.642 19.4882C91.0984 19.4882 80.618 53.0234 77.744 62.9625C87.2004 51.139 106.049 25.796 103.509 20.3836C103.405 20.1621 103.089 19.4882 101.642 19.4882Z" fill="#3F3D56"/>
<path d="M81.1028 66.1419C81.1028 66.1419 105.163 50.8415 154.456 55.512C203.75 60.1825 81.1028 66.1419 81.1028 66.1419Z" fill="#A97ECE"/>
<path d="M79.4615 66.78L80.7212 65.6935C80.9762 65.4735 87.1098 60.256 99.3994 56.0601C110.708 52.1982 129.56 48.5603 155.146 53.159C165.956 55.1016 167.36 56.5492 167.266 57.824C167.173 59.0835 166.955 62.0334 123.765 64.7682C102.659 66.1044 81.3326 66.7261 81.1194 66.7322L79.4615 66.78ZM131.925 52.1921C104.134 52.1921 87.7029 62.1297 82.939 65.494C88.5786 65.3123 106.213 64.6961 123.694 63.5891C163.827 61.0478 166.056 58.268 166.095 57.7366C166.1 57.6798 166.07 56.3216 154.94 54.3216C147.346 52.9299 139.644 52.2172 131.925 52.1921V52.1921Z" fill="#3F3D56"/>
<path d="M96.3604 67.9362C96.3604 67.9362 138.505 67.3701 140.873 71.8988C143.24 76.4275 96.3604 67.9362 96.3604 67.9362Z" fill="#A97ECE"/>
<path d="M146.269 79.5084C132.817 79.5084 100.482 69.7876 96.1902 68.4787L92.6732 67.4063L96.3472 67.3233C101.738 67.2019 149.103 66.4089 152.082 76.0051C152.435 77.1418 152.026 77.8711 151.62 78.2828C150.772 79.1436 148.875 79.5084 146.269 79.5084ZM100.205 68.4502C119.973 74.2807 147.422 80.8685 150.787 77.4512C150.969 77.2661 151.154 76.9746 150.962 76.3575C148.845 69.5399 116.541 68.3386 100.205 68.4502Z" fill="#3F3D56"/>
<path d="M88.1448 72.638C88.1448 72.638 113.6 84.4783 108.626 88.1215C103.652 91.7647 88.1448 72.638 88.1448 72.638Z" fill="#A97ECE"/>
<path d="M124.487 102.447C112.173 102.447 87.1012 72.6411 85.935 71.2463L84.2845 69.272L86.6244 70.3274C88.3316 71.0976 128.447 89.2948 129.325 98.4098C129.442 99.6185 128.914 100.676 127.801 101.467C126.826 102.136 125.667 102.479 124.487 102.447V102.447ZM88.5614 72.5145C98.2429 83.6926 119.784 105.718 127.124 100.502C127.905 99.947 128.234 99.3184 128.157 98.5237C127.526 91.9702 101.311 78.457 88.5614 72.5145Z" fill="#3F3D56"/>
<path d="M130.396 86.8112C130.396 86.8112 151.522 95.6695 146.828 101.575C142.133 107.481 130.396 86.8112 130.396 86.8112Z" fill="#A97ECE"/>
<path d="M91.0789 79.7246C91.0789 79.7246 135.091 128.15 130.983 131.103C126.875 134.055 91.0789 79.7246 91.0789 79.7246Z" fill="#A97ECE"/>
<path d="M82.8633 76.1813C82.8633 76.1813 101.394 107.239 97.6118 110.259C93.8302 113.278 82.8633 76.1813 82.8633 76.1813Z" fill="#A97ECE"/>
<path d="M103.837 121.893C103.606 121.891 103.377 121.852 103.158 121.778C96.3644 119.532 82.6725 79.1909 81.1338 74.5982L79.7653 70.514L82.175 74.0775C82.2467 74.1839 89.4491 84.8522 95.8406 95.889C107.656 116.292 106.677 120.304 104.912 121.547C104.599 121.772 104.223 121.893 103.837 121.893ZM83.7384 78.5712C88.7327 92.8385 98.7873 119.09 103.524 120.656C103.64 120.705 103.766 120.724 103.892 120.711C104.017 120.697 104.136 120.652 104.24 120.579C105.209 119.897 106.233 116.182 94.8291 96.4882C90.7832 89.5013 86.4095 82.6604 83.7384 78.5712H83.7384Z" fill="#3F3D56"/>
<path d="M75.024 75.0002C75.024 75.0002 58.3467 124.523 68.5805 124.012C78.8143 123.502 75.024 75.0002 75.024 75.0002Z" fill="#A97ECE"/>
<path d="M64.4292 132.288C62.6332 132.288 61.2521 131.582 60.3214 130.186C53.719 120.284 73.2775 76.6107 74.1131 74.7563L75.0053 72.7773L75.2311 74.9385C75.4162 76.707 79.6518 118.383 70.0568 129.517C68.5399 131.276 66.7353 132.207 64.6934 132.283C64.6046 132.287 64.5163 132.288 64.4292 132.288ZM74.2701 77.3252C70.4035 86.2723 55.836 121.339 61.2962 129.528C62.0401 130.645 63.1369 131.162 64.6499 131.103C66.3783 131.039 67.8568 130.266 69.1703 128.743C77.191 119.436 75.0242 86.3176 74.2701 77.3252V77.3252Z" fill="#3F3D56"/>
<path d="M69.2638 77.4619C69.2638 77.4619 41.2693 109.684 43.8313 113.077C46.3933 116.471 69.2638 77.4619 69.2638 77.4619Z" fill="#A97ECE"/>
<path d="M35.4093 124.824C35.0386 124.83 34.6768 124.71 34.3829 124.482C34.1834 124.319 34.0208 124.115 33.9059 123.883C33.7911 123.652 33.7267 123.398 33.717 123.139C33.0138 115.135 70.278 73.4238 71.8643 71.6521L75.6156 67.4634L72.8081 72.3433C71.6116 74.4229 43.4197 123.292 35.8282 124.781C35.6902 124.809 35.5499 124.823 35.4093 124.824V124.824ZM68.7777 76.9192C56.4314 91.0302 34.3978 117.478 34.8861 123.036C34.8818 123.132 34.8991 123.229 34.9368 123.318C34.9745 123.407 35.0316 123.486 35.1038 123.55C35.1761 123.6 35.2587 123.632 35.3453 123.645C35.432 123.657 35.5203 123.649 35.6035 123.622C40.85 122.593 59.1776 93.1781 68.7777 76.9192H68.7777Z" fill="#3F3D56"/>
<path d="M60.8613 55.7644C60.8613 55.7644 36.4549 26.7519 13.8857 29.5636C-8.68353 32.3753 60.8613 55.7644 60.8613 55.7644Z" fill="#A97ECE"/>
<path d="M64.1146 57.1201L62.1937 56.6783C62.0395 56.6429 46.614 53.0825 31.3634 48.5406C0.134214 39.2403 0.0333525 34.9637 0.000702707 33.5585C-0.0394131 31.863 1.67581 30.5516 5.24434 29.5492C18.4875 25.8292 33.4408 33.1569 43.6495 39.9606C50.505 44.5718 56.9006 49.8403 62.7467 55.6924L64.1146 57.1201ZM12.8232 29.7208C10.3696 29.7083 7.92569 30.0334 5.55951 30.6871C2.70674 31.4881 1.14968 32.498 1.17376 33.5306C1.30729 39.2005 35.9405 49.3111 60.4326 55.0569C54.6428 49.4677 32.7691 29.7208 12.8232 29.7208H12.8232Z" fill="#3F3D56"/>
<path d="M41.7853 53.7403C41.7853 53.7403 9.50975 51.3781 11.8571 57.2836C14.2044 63.1891 41.7853 53.7403 41.7853 53.7403Z" fill="#A97ECE"/>
<path d="M50.0009 31.8899C50.0009 31.8899 48.2404 23.6221 45.3063 25.3938C42.3721 27.1654 50.0009 31.8899 50.0009 31.8899Z" fill="#A97ECE"/>
<path d="M79.7332 37.7399C79.7332 37.7399 87.7857 3.68776 84.1361 3.56284C80.4865 3.43792 79.7332 37.7399 79.7332 37.7399Z" fill="#A97ECE"/>
<path d="M78.2346 45.2791L78.1687 40.7568C78.1475 39.3043 77.6999 5.13014 82.1149 0.620832C82.2835 0.431103 82.489 0.278139 82.7187 0.171366C82.9483 0.0645939 83.1972 0.00627322 83.4501 0C83.6955 0.0010083 83.9373 0.060199 84.1557 0.172771C84.3742 0.285343 84.5632 0.44813 84.7075 0.647936C88.1046 5.02691 80.2335 37.2334 79.3246 40.8914L78.2346 45.2791ZM83.4501 1.18111C83.3917 1.18111 83.214 1.18111 82.951 1.44985C80.0352 4.42799 79.3584 24.2401 79.3188 35.8916C82.551 22.0079 85.845 4.03294 83.7825 1.37488C83.748 1.31685 83.6994 1.26861 83.6412 1.23471C83.5831 1.2008 83.5173 1.18236 83.4501 1.18111Z" fill="#3F3D56"/>
<path d="M116.899 42.5198C116.899 42.5198 120.42 33.6615 123.941 36.0237C127.462 38.386 116.899 42.5198 116.899 42.5198Z" fill="#A97ECE"/>
<path d="M83.4502 121.063C83.4502 121.063 78.7555 155.906 87.558 155.315C96.3604 154.725 83.4502 121.063 83.4502 121.063Z" fill="#A97ECE"/>
<path d="M108.007 113.14C108.007 113.14 103.509 105.595 103.509 100.314C103.509 100.314 95.6378 92.0158 97.8868 89.7525C100.136 87.4893 105.009 96.1651 105.009 96.1651C105.009 96.1651 96.0126 85.9804 98.6365 84.4716C101.26 82.9627 109.881 94.2791 109.881 94.2791L112.88 92.7702C112.88 92.7702 106.511 76.9614 111.006 76.5502C113.067 76.3616 117.753 91.6386 117.753 91.6386L122.626 104.087C122.626 104.087 124.5 108.613 123.75 111.254C123.293 112.868 122.918 114.505 122.626 116.157L108.007 113.14Z" fill="#FFB9B9"/>
<path opacity="0.1" d="M119.627 115.026C119.627 115.026 122.251 110.876 121.301 104.54C120.352 98.2047 115.129 94.6562 115.129 94.6562C115.129 94.6562 111.756 97.2967 115.129 104.087C115.129 104.087 111.006 107.859 114.379 113.894" fill="black"/>
<path d="M121.126 115.026C121.126 115.026 123.75 110.876 122.801 104.54C121.851 98.2047 116.628 94.6562 116.628 94.6562C116.628 94.6562 113.255 97.2967 116.628 104.087C116.628 104.087 112.505 107.859 115.879 113.894" fill="#FFB9B9"/>
<path opacity="0.1" d="M110.818 94.0905L108.757 90.8842C108.757 90.8842 99.0112 89.3753 100.136 92.7702C101.26 96.1651 105.758 94.6563 105.758 94.6563L108.382 97.2968L110.818 94.0905Z" fill="black"/>
<path d="M112.505 93.9018L109.507 89.7525C109.507 89.7525 99.7609 88.2437 100.885 91.6386C102.01 95.0335 106.508 93.5246 106.508 93.5246L109.132 96.1651L112.505 93.9018Z" fill="#FFB9B9"/>
<path d="M182.037 143.505L180.162 158.593L209.399 160.479V142.373L182.037 143.505Z" fill="#FFB9B9"/>
<path d="M263 228L239.29 180.279C237.873 175.558 233.45 167.871 219.707 162.931L209.399 154.156L201.715 153.878L170.979 149.352C170.979 149.352 147.365 147.843 131.996 157.273L127.873 155.387C127.873 155.387 121.126 131.246 124.125 113.894L106.883 112.385C106.883 112.385 97.5119 153.501 102.01 165.949C106.508 178.397 123 187.45 123 187.45L137.619 202.161L143.241 227.811H230.952L232.348 221.081L239.198 227.811L263 228Z" fill="#CFCCE0"/>
<path d="M195.513 148.697C214.519 148.697 229.927 127.592 229.927 101.558C229.927 75.5232 214.519 54.4182 195.513 54.4182C176.507 54.4182 161.099 75.5232 161.099 101.558C161.099 127.592 176.507 148.697 195.513 148.697Z" fill="#F9B499"/>
<path d="M161.67 92.9687C160.75 93.1579 159.871 93.5043 159.072 93.9924C159.072 93.9924 139.382 61.2469 165.712 50.7853C165.712 50.7853 186.973 42.1339 202.672 43.4947C202.672 43.4947 200.797 36.1166 202.558 31.0107C202.765 30.4008 203.169 29.8745 203.709 29.5121C204.248 29.1498 204.893 28.9712 205.545 29.0038C206.197 29.0363 206.82 29.2782 207.319 29.6924C207.819 30.1066 208.167 30.6704 208.31 31.2978C208.926 34.6021 208.896 37.9919 208.222 41.285C208.222 41.285 212.023 34.3439 217.522 33.4451C217.865 33.3925 218.215 33.4098 218.551 33.4959C218.886 33.5821 219.201 33.7352 219.474 33.9459C219.747 34.1565 219.973 34.4202 220.139 34.7206C220.305 35.021 220.406 35.3517 220.436 35.6922C220.626 37.9393 219.739 41.5971 213.759 45.3798C213.759 45.3798 234.906 43.3324 235.945 64.8423C235.945 64.8423 236.541 76.8519 233.804 96.277C233.804 96.277 233.424 122.83 225.15 125.589C229.561 115.293 231.012 103.999 229.344 92.9437C227.993 92.5909 226.555 92.7747 225.34 93.4556C225.34 93.4556 222.514 88.6243 222.742 75.4037C222.767 74.9702 222.67 74.5384 222.463 74.1553C222.256 73.7721 221.946 73.4524 221.567 73.2309C221.188 73.0094 220.754 72.8947 220.314 72.8992C219.873 72.9037 219.442 73.0273 219.068 73.2565C217.959 73.9791 216.931 74.8161 216.002 75.7533C216.002 75.7533 200.062 90.8964 198.693 83.8928C198.693 83.8928 197.021 80.9341 203.179 73.0817C203.302 72.9292 203.369 72.7399 203.369 72.5449C203.369 72.3499 203.302 72.1606 203.179 72.0081C202.558 71.2341 200.999 70.4726 197.756 74.6172C197.105 75.4656 196.398 76.2705 195.64 77.0267C191.446 81.1838 178.458 93.2558 175.126 87.0138C175.126 87.0138 171.933 83.0814 178.116 71.5961C178.302 71.2639 178.376 70.8824 178.329 70.506C178.281 70.1296 178.114 69.7777 177.851 69.5007C177.588 69.2236 177.243 69.0356 176.865 68.9635C176.487 68.8914 176.096 68.939 175.747 69.0993C173.777 70.2424 172.085 71.7979 170.792 73.656C170.792 73.656 162.62 84.542 164.736 98.2369C164.736 98.2369 162.417 98.8112 161.67 92.9687Z" fill="#2F2E41"/>
</g>
<defs>
<clipPath id="clip0_3_47">
<rect width="263" height="228" fill="white"/>
</clipPath>
</defs>
</svg>
